<?xml version="1.0" encoding="UTF-8"?>
<svg id="Layer_2" data-name="Layer 2" xmlns="http://www.w3.org/2000/svg" viewBox="0 0 48 48">
  <defs>
    <style>
      .cls-1 {
        fill: #2f4550;
      }
    </style>
  </defs>
  <g id="Layer_1-2" data-name="Layer 1">
    <g>
      <path class="cls-1" d="m48,11c0-2.76-2.24-5-5-5h-8.49c0-3.31-2.69-6-6-6h-9.02c-3.31,0-6,2.69-6,6H5c-2.76,0-5,2.24-5,5v7h2.47l3.01,25.58c.3,2.52,2.43,4.42,4.97,4.42h27.11c2.54,0,4.67-1.9,4.97-4.42l3.01-25.58h2.47v-7Zm-28.51-7h9.02c1.1,0,2,.9,2,2h-13.02c0-1.1.9-2,2-2Zm-15.49,7c0-.55.45-1,1-1h38c.55,0,1,.45,1,1v3H4v-3Zm34.55,32.12c-.06.5-.49.88-.99.88H10.45c-.51,0-.93-.38-.99-.88l-2.95-25.12h35l-2.95,25.12Z"/>
      <path class="cls-1" d="m24,40.01c1.1,0,2-.9,2-2v-14.01c0-1.1-.9-2-2-2s-2,.9-2,2v14.01c0,1.1.9,2,2,2Z"/>
      <path class="cls-1" d="m11.6,24.22l1.62,14.03c.13,1.1,1.12,1.88,2.22,1.76,1.1-.13,1.88-1.12,1.76-2.22l-1.62-14.03c-.13-1.1-1.12-1.88-2.22-1.76h0c-1.1.13-1.88,1.12-1.76,2.22Z"/>
      <path class="cls-1" d="m32.48,40c1.1.13,2.09-.66,2.22-1.76l1.62-14.03c.13-1.1-.66-2.09-1.76-2.22h0c-1.1-.13-2.09.66-2.22,1.76l-1.62,14.03c-.13,1.1.66,2.09,1.76,2.22Z"/>
    </g>
  </g>
</svg>