<?xml version="1.0" encoding="UTF-8"?>
<svg id="Layer_1" data-name="Layer 1" xmlns="http://www.w3.org/2000/svg" viewBox="0 0 48 48">
  <defs>
    <style>
      .cls-1 {
        fill: #2f4550;
      }
    </style>
  </defs>
  <path class="cls-1" d="m26.83,24L47.41,3.41c.78-.78.78-2.05,0-2.83-.78-.78-2.05-.78-2.83,0l-20.59,20.59L3.41.59C2.63-.2,1.37-.2.59.59-.2,1.37-.2,2.63.59,3.41l20.59,20.59L.59,44.59c-.78.78-.78,2.05,0,2.83.39.39.9.59,1.41.59s1.02-.2,1.41-.59l20.59-20.59,20.59,20.59c.39.39.9.59,1.41.59s1.02-.2,1.41-.59c.78-.78.78-2.05,0-2.83l-20.59-20.59Z"/>
</svg>